<?xml version="1.0" encoding="utf-8"?>
<!-- Generator: Adobe Illustrator 27.5.0, SVG Export Plug-In . SVG Version: 6.00 Build 0)  -->
<svg version="1.1" xmlns="http://www.w3.org/2000/svg" xmlns:xlink="http://www.w3.org/1999/xlink" x="0px" y="0px"
	 viewBox="0 0 500 500" style="enable-background:new 0 0 500 500;" xml:space="preserve">
<g id="BACKGROUND">
	<rect style="fill:#FFFFFF;" width="500" height="500"/>
</g>
<g id="OBJECTS">
	<g>
		<g>
			<rect x="131.228" y="76.262" style="fill:#BFC9E2;" width="240.943" height="137.997"/>
			<rect x="332.631" y="90.993" style="fill:#FFFFFF;" width="33.13" height="4.851"/>
			<rect x="332.631" y="101.622" style="fill:#FFFFFF;" width="6.884" height="4.851"/>
			<rect x="343.387" y="101.622" style="fill:#FFFFFF;" width="22.373" height="4.851"/>
			<rect x="332.631" y="112.251" style="fill:#FFFFFF;" width="33.13" height="4.851"/>
			<rect x="343.387" y="122.88" style="fill:#FFFFFF;" width="22.373" height="4.851"/>
			<rect x="332.631" y="122.88" style="fill:#FFFFFF;" width="6.884" height="4.851"/>
			<rect x="332.631" y="133.509" style="fill:#FFFFFF;" width="33.13" height="4.851"/>
			<rect x="332.631" y="144.138" style="fill:#FFFFFF;" width="6.884" height="4.851"/>
			<rect x="343.387" y="144.138" style="fill:#FFFFFF;" width="22.373" height="4.851"/>
		</g>
		<g>
			<g>
				<g>
					<path style="fill:#454658;" d="M219.248,101.299l-4.152-0.599c-0.262-0.038-0.457-0.263-0.457-0.528v-13.17
						c0-0.265,0.195-0.49,0.457-0.528l4.152-0.599V101.299z"/>
					<path style="fill:#381905;" d="M215.461,86.557c-0.259,0.037-0.452,0.26-0.452,0.522v2.282h0c1.149,0,2.081,0.932,2.081,2.081
						v4.512c0,1.149-0.932,2.081-2.081,2.081h0v2.062c0,0.262,0.193,0.484,0.452,0.522l4.104,0.592V85.965L215.461,86.557z"/>
				</g>
				<g>
					<path style="fill:#454658;" d="M318.767,101.299l4.152-0.599c0.263-0.038,0.457-0.263,0.457-0.528v-13.17
						c0-0.265-0.195-0.49-0.457-0.528l-4.152-0.599V101.299z"/>
					<path style="fill:#381905;" d="M322.554,86.557c0.259,0.037,0.452,0.26,0.452,0.522v2.282l0,0
						c-1.149,0-2.081,0.932-2.081,2.081v4.512c0,1.149,0.932,2.081,2.081,2.081l0,0v2.062c0,0.262-0.193,0.484-0.452,0.522
						l-4.104,0.592V85.965L322.554,86.557z"/>
				</g>
				<g>
					<path style="fill:#454658;" d="M219.248,119.382l-4.152-0.599c-0.262-0.038-0.457-0.263-0.457-0.528v-13.17
						c0-0.265,0.195-0.49,0.457-0.528l4.152-0.599V119.382z"/>
					<path style="fill:#381905;" d="M215.461,104.639c-0.259,0.037-0.452,0.26-0.452,0.522v2.281h0c1.149,0,2.081,0.932,2.081,2.081
						v4.513c0,1.149-0.932,2.081-2.081,2.081h0v2.062c0,0.262,0.193,0.484,0.452,0.522l4.104,0.592v-15.246L215.461,104.639z"/>
				</g>
				<g>
					<path style="fill:#454658;" d="M219.248,81.71l-4.152-0.599c-0.262-0.038-0.457-0.263-0.457-0.528v-9.402
						c0-0.265,0.195-0.49,0.457-0.528l4.152-0.599V81.71z"/>
					<path style="fill:#381905;" d="M215.461,70.735c-0.259,0.037-0.452,0.26-0.452,0.522v2.282h0c1.149,0,2.081,0.932,2.081,2.081
						v0.745c0,1.149-0.932,2.081-2.081,2.081h0v2.062c0,0.262,0.193,0.484,0.452,0.522l4.104,0.592V70.143L215.461,70.735z"/>
				</g>
				<path style="fill:#454658;" d="M308.433,246.535h-78.865c-7.301,0-13.219-5.918-13.219-13.219V45.101
					c0-7.301,5.918-13.219,13.219-13.219h78.865c7.301,0,13.219,5.918,13.219,13.219v188.215
					C321.652,240.617,315.733,246.535,308.433,246.535z"/>
				<path style="fill:#381905;" d="M220.115,232.639V45.778c0-5.594,4.535-10.129,10.129-10.129h77.511
					c5.594,0,10.129,4.535,10.129,10.129v186.86c0,5.594-4.535,10.129-10.129,10.129h-77.511
					C224.65,242.768,220.115,238.233,220.115,232.639z"/>
				<g>
					<path style="fill:#C8E5F7;" d="M305.537,37.91h-9.163c-1.117,0-2.023,0.906-2.023,2.023l0,0c0,3.173-2.572,5.746-5.746,5.746
						h-39.21c-3.173,0-5.746-2.572-5.746-5.746l0,0c0-1.117-0.906-2.023-2.023-2.023h-9.163c-5.571,0-10.088,4.516-10.088,10.087
						V230.42c0,5.571,4.516,10.088,10.088,10.088h73.073c5.571,0,10.087-4.516,10.087-10.088V47.997
						C315.624,42.426,311.108,37.91,305.537,37.91z"/>
				</g>
			</g>
			<rect x="228.746" y="176.163" style="fill:#FFFFFF;" width="80.508" height="37.457"/>
			<g>
				<rect x="238.595" y="115.205" style="fill:#105F9A;" width="8.605" height="98.414"/>
				<rect x="290.8" y="115.205" style="fill:#CB374D;" width="8.605" height="98.414"/>
				<rect x="273.398" y="148.478" style="fill:#105F9A;" width="8.605" height="65.141"/>
				<rect x="255.997" y="166.836" style="fill:#CB374D;" width="8.605" height="46.783"/>
			</g>
			<path style="fill:#FFFFFF;" d="M240.119,119.382c0-1.535,1.244-2.778,2.778-2.778s2.779,1.244,2.779,2.778
				s-1.244,2.778-2.779,2.778S240.119,120.916,240.119,119.382z"/>
			<path style="fill:#FFFFFF;" d="M257.521,170.923c0-1.535,1.244-2.779,2.779-2.779c1.534,0,2.778,1.244,2.778,2.779
				s-1.244,2.778-2.778,2.778C258.765,173.702,257.521,172.458,257.521,170.923z"/>
			<path style="fill:#FFFFFF;" d="M274.922,152.637c0-1.535,1.244-2.778,2.778-2.778c1.535,0,2.778,1.244,2.778,2.778
				s-1.244,2.779-2.778,2.779C276.166,155.416,274.922,154.172,274.922,152.637z"/>
			<path style="fill:#FFFFFF;" d="M292.324,119.382c0-1.535,1.244-2.778,2.778-2.778c1.535,0,2.779,1.244,2.779,2.778
				s-1.244,2.778-2.779,2.778C293.568,122.16,292.324,120.916,292.324,119.382z"/>
			
				<polyline style="fill:none;stroke:#FFFFFF;stroke-width:1.2191;stroke-linecap:round;stroke-linejoin:round;stroke-miterlimit:10;" points="
				242.898,119.382 260.299,170.923 277.701,152.637 295.102,119.382 			"/>
			<g>
				<g>
					
						<ellipse transform="matrix(0.7907 -0.6123 0.6123 0.7907 8.3365 181.0995)" style="fill:#FFFFFF;" cx="269" cy="78.359" rx="24.478" ry="24.478"/>
				</g>
				<g>
					<path style="fill:#CB374D;" d="M269,78.359l14.838,17.379c-4.136,3.531-9.4,5.473-14.838,5.473
						c-12.536,0-22.852-10.316-22.852-22.852c0-12.536,10.316-22.852,22.852-22.852s22.852,10.316,22.852,22.852H269z"/>
				</g>
				<g>
					<g>
						<path style="fill:#105F9A;" d="M264.24,101.021c-10.66-2.239-18.396-11.77-18.396-22.662
							c0-12.769,10.388-23.156,23.156-23.156c12.769,0,23.157,10.388,23.157,23.156v0.305h-22.91l-4.709,22.42L264.24,101.021z"/>
						<path style="fill:#FFFFFF;" d="M269,55.507c12.536,0,22.852,10.316,22.852,22.852H269l-4.698,22.364
							c-10.54-2.214-18.154-11.594-18.154-22.364C246.148,65.823,256.464,55.507,269,55.507 M269,54.897
							c-12.937,0-23.462,10.525-23.462,23.461c0,11.035,7.839,20.692,18.638,22.96l0.596,0.125l0.125-0.597l4.596-21.88h22.357
							h0.609v-0.61C292.461,65.422,281.937,54.897,269,54.897L269,54.897z"/>
					</g>
				</g>
				<g>
					<path style="fill:#0DB3F1;" d="M269,78.359L258.167,98.48c-7.393-3.98-12.019-11.726-12.019-20.121
						c0-12.536,10.316-22.852,22.852-22.852s22.852,10.316,22.852,22.852H269z"/>
				</g>
			</g>
			<rect x="228.746" y="217.032" style="fill:#0DB3F1;" width="80.508" height="7.458"/>
		</g>
		<g>
			<path style="fill:#CB374D;" d="M187.779,78.359c0,1.219-0.209,2.387-0.578,3.481c0.501,0.274,0.995,0.562,1.497,0.834
				c5.5,2.984,11.109,5.712,16.779,8.318c1.71-3.864,2.667-8.136,2.667-12.634c0-11.797-6.535-22.063-16.181-27.387
				c-1.428,2.627-2.847,5.258-4.289,7.879c-1.832,3.33-3.708,6.638-5.442,10.021C185.541,70.742,187.779,74.287,187.779,78.359z"/>
			<path style="fill:#0DB3F1;" d="M192.192,90.046c-2.539-1.304-5.053-2.659-7.553-4.037c-1.977,2.005-4.722,3.25-7.76,3.25
				c-6.02,0-10.9-4.88-10.9-10.9s4.88-10.9,10.9-10.9c0.197,0,0.389,0.019,0.583,0.029c0.008-0.016,0.016-0.033,0.024-0.05
				c1.913-3.823,4.041-7.531,6.097-11.278c1.316-2.4,2.616-4.808,3.923-7.211c-3.318-1.199-6.896-1.856-10.627-1.856
				c-17.267,0-31.265,13.998-31.265,31.265s13.998,31.265,31.265,31.265c11.025,0,20.71-5.712,26.277-14.332
				C199.466,93.623,195.8,91.899,192.192,90.046z"/>
		</g>
		<g>
			<path style="fill:#0DB3F1;" d="M191.963,125.25c-1.428,2.627-2.847,5.258-4.289,7.879l-5.442,10.02
				c3.309,1.871,5.546,5.416,5.546,9.488c0,1.219-0.209,2.387-0.578,3.481c0.501,0.274,0.995,0.562,1.497,0.834l16.779,8.318
				c1.71-3.865,2.667-8.136,2.667-12.634C208.144,140.841,201.609,130.574,191.963,125.25z"/>
			<path style="fill:#105F9A;" d="M176.879,121.372c-4.234,0-8.27,0.846-11.953,2.372l10.268,18.137
				c0.551-0.086,1.11-0.143,1.685-0.143c0.197,0,0.389,0.019,0.583,0.03c0.008-0.016,0.016-0.033,0.024-0.05
				c1.913-3.823,4.041-7.531,6.097-11.278c1.316-2.4,2.616-4.808,3.923-7.211C184.188,122.029,180.61,121.372,176.879,121.372z"/>
			<path style="fill:#CB374D;" d="M184.639,160.287c-1.977,2.005-4.722,3.25-7.76,3.25c-6.02,0-10.9-4.88-10.9-10.9
				c0-3.698,1.846-6.961,4.663-8.932l-10.053-17.757c-8.981,5.493-14.975,15.39-14.975,26.689c0,17.267,13.998,31.265,31.265,31.265
				c11.025,0,20.71-5.712,26.277-14.332L184.639,160.287z"/>
		</g>
	</g>
	<g>
		<path style="fill:#E87578;" d="M209.859,186.135c0,0,5.537-7.964,11.215-8.056c5.677-0.092-2.358,4.303-2.804,4.956
			c-0.446,0.652-3.964,8.182-4.195,8.182C213.844,191.217,210.285,186.755,209.859,186.135z"/>
		<g>
			<g>
				<g>
					<g>
						<g>
							<g>
								<g>
									<g>
										<g>
											<path style="fill:#323444;" d="M135.16,390.172c-0.692-6.273-0.778-8.721-0.741-11.847
												c0.028-2.345,0.277-5.053,0.959-8.768c1.048-5.71,3.36-13.803,9.073-23.122c1.111-0.553,3.477-1.52,6.406-1.09
												c1.306,0.192,4.607,0.77,6.077,3.487c0.538,0.995,0.662,2.298,0.252,4.107c0.026,0.04-7.911,32.207-11.252,49.094
												c-3.14-0.022-6.281-0.361-9.421-0.852C136.173,398.696,135.72,395.242,135.16,390.172z"/>
											<path style="fill:#FF8B6A;" d="M136.512,401.183c3.14,0.491,6.281,0.829,9.421,0.852c-0.73,3.69-1.242,6.654-1.401,8.39
												c-0.667,7.248,0.663,7.9,1.028,7.946c-3.56,1.376-8.219,2.725-9.892,0.819c-1.397-1.591,0.475-4.095,1.334-9.296
												C137.422,407.346,137.223,406.415,136.512,401.183z"/>
										</g>
									</g>
								</g>
								<g>
									<path style="fill:#08051A;" d="M151.265,414.69c0,0-1.993-1.528-2.707-2.975c-0.714-1.447-1.761-4.94-2.076-5.019
										c-0.315-0.079-3.043,0.491-3.344,0.769c-0.3,0.277,3.922,5.779,3.678,5.864c-0.244,0.085-2.068,2.766-1.297,3.286
										c0.771,0.519,4.243,0.48,4.243,0.48l1.388-1.736L151.265,414.69z"/>
									<path style="fill:#454658;" d="M157.899,419.212c0,0,0.018-1.287-0.735-1.77c-0.752-0.483-4.265-1.387-4.494-1.527
										c-0.229-0.14-1.466-1.338-1.85-1.454c-0.385-0.116-3.74,1.915-4.421,1.672c-0.68-0.243,1.814-1.816,1.545-2.165
										c-0.269-0.349-2.965-3.668-3.033-4.008c-0.064-0.319-4.221,1.329-7.825,0.197c-0.395-0.124-0.818,0.064-0.945,0.458
										l-1.598,4.958l-0.256,1.499l1.601,0.696l4.689,0.531l6.103,2.03l3.148,0.968l5.025-0.102l3.175-1.708L157.899,419.212z"/>
									<path style="fill:#381905;" d="M158.145,420.14c0.037-0.065,0.148-1.164-0.126-1.337c-0.274-0.173-0.677,1.149-0.882,1.164
										c-0.205,0.016-3.604,1.256-9.01,0.18c-5.406-1.076-6.006-2.595-8.541-3.155c-2.535-0.56-5.164-0.124-5.044-1.419
										c-0.125,0.194-1.457,2.326-0.58,3.677c0.473,0.729,1.368,0.891,2.769,1.123c2.513,0.417,3.445,0.253,5.308,0.168
										c0.79-0.036,1.671,1.023,3.988,1.673C148.346,422.865,156.266,423.435,158.145,420.14z"/>
									<g>
										<path style="fill:#454658;" d="M150.953,414.913c0.09,0.01,0.181-0.04,0.216-0.129c0.043-0.107-0.009-0.228-0.115-0.271
											c-1.156-0.465-2.423-0.656-3.664-0.55c-0.114,0.01-0.199,0.11-0.19,0.225c0.01,0.115,0.111,0.201,0.225,0.189
											c1.177-0.1,2.378,0.08,3.473,0.522C150.917,414.906,150.935,414.911,150.953,414.913z"/>
									</g>
									<g>
										<path style="fill:#454658;" d="M147.643,414.212c0.04,0.004,0.081-0.002,0.119-0.022c0.193-0.101,0.395-0.22,0.601-0.341
											c0.451-0.266,0.917-0.541,1.36-0.658c0.111-0.029,0.177-0.142,0.148-0.254c-0.029-0.111-0.144-0.177-0.254-0.148
											c-0.499,0.131-0.99,0.421-1.466,0.701c-0.199,0.118-0.394,0.233-0.582,0.33c-0.102,0.053-0.142,0.179-0.089,0.28
											C147.515,414.165,147.576,414.205,147.643,414.212z"/>
									</g>
									<g>
										<path style="fill:#454658;" d="M151.159,414.769c0.073,0.008,0.149-0.023,0.194-0.087c0.066-0.095,0.043-0.224-0.051-0.29
											c-0.976-0.682-3.495-2.1-5.055-2.103c-0.115,0-0.209,0.092-0.209,0.207c0,0.115,0.093,0.212,0.207,0.209
											c1.32,0.007,3.655,1.214,4.818,2.028C151.093,414.754,151.126,414.766,151.159,414.769z"/>
									</g>
									<g>
										<path style="fill:#454658;" d="M146.104,412.34c0.043,0.005,0.088-0.004,0.128-0.027c0.578-0.34,1.504-0.721,2.154-0.886
											c0.111-0.029,0.178-0.142,0.15-0.253c-0.029-0.111-0.142-0.179-0.253-0.15c-0.682,0.174-1.655,0.574-2.262,0.93
											c-0.099,0.058-0.132,0.186-0.074,0.285C145.982,412.298,146.041,412.333,146.104,412.34z"/>
									</g>
									<g>
										<path style="fill:#454658;" d="M149.093,412.548c0.072,0.008,0.145-0.021,0.191-0.083
											c0.068-0.093,0.049-0.223-0.044-0.291c-0.987-0.725-2.718-1.328-3.942-1.377c-0.115-0.005-0.211,0.085-0.216,0.199
											c-0.005,0.115,0.085,0.213,0.2,0.216c1.151,0.047,2.783,0.614,3.712,1.297
											C149.023,412.531,149.058,412.544,149.093,412.548z"/>
									</g>
									<g>
										<path style="fill:#454658;" d="M144.755,410.341c0.032,0.004,0.065,0,0.097-0.012c0.95-0.362,2.357-0.204,3.203,0.355
											c0.096,0.064,0.225,0.037,0.288-0.058c0.063-0.096,0.037-0.225-0.059-0.288c-0.962-0.638-2.501-0.809-3.581-0.398
											c-0.107,0.041-0.161,0.161-0.12,0.268C144.612,410.284,144.68,410.333,144.755,410.341z"/>
									</g>
									<g>
										<path style="fill:#454658;" d="M145.175,411.075c0.05,0.005,0.101-0.007,0.145-0.038l0.326-0.239
											c0.588-0.434,1.475-1.088,2.024-1.263c0.109-0.035,0.17-0.153,0.135-0.262c-0.034-0.109-0.152-0.17-0.262-0.135
											c-0.614,0.197-1.498,0.849-2.144,1.325l-0.322,0.236c-0.093,0.067-0.114,0.197-0.047,0.29
											C145.065,411.04,145.118,411.069,145.175,411.075z"/>
									</g>
								</g>
							</g>
							<g>
								<g>
									<path style="fill:#323444;" d="M163.101,279.646c0,0-0.936,66.181-6.28,75.754c-5.344,9.573-17.285,3.267-16.805-2.398
										c0.481-5.665-6.092-74.873-6.092-74.873c0.54-8.185,7.733-14.378,15.704-13.768
										C157.338,264.951,163.407,271.723,163.101,279.646z"/>
								</g>
							</g>
						</g>
					</g>
					<g>
						<g>
							<g>
								<g>
									<g>
										<g>
											<path style="fill:#323444;" d="M172.169,390.342c-2.052-5.968-2.673-8.338-3.323-11.395
												c-0.488-2.294-0.839-4.99-0.989-8.765c-0.231-5.801,0.248-14.204,3.777-24.55c0.962-0.784,3.059-2.246,6.011-2.469
												c1.316-0.1,4.664-0.26,6.694,2.068c0.743,0.853,1.151,2.097,1.147,3.952c0.034,0.034-0.65,33.158-0.203,50.367
												c-3.069,0.668-6.207,1.027-9.378,1.237C175.028,398.436,173.828,395.166,172.169,390.342z"/>
											<path style="fill:#FF8B6A;" d="M175.904,400.788c3.172-0.21,6.31-0.569,9.378-1.237c0.098,3.76,0.249,6.764,0.474,8.493
												c0.94,7.218,2.381,7.562,2.747,7.527c-3.172,2.124-7.42,4.463-9.471,2.97c-1.713-1.246-0.435-4.1-0.739-9.362
												C178.145,406.601,177.747,405.736,175.904,400.788z"/>
										</g>
									</g>
								</g>
								<g>
									<path style="fill:#08051A;" d="M193.262,410.728c0,0-2.28-1.054-3.294-2.309s-2.802-4.433-3.127-4.441
										c-0.325-0.008-2.861,1.147-3.093,1.484c-0.232,0.336,5.095,4.778,4.876,4.914c-0.219,0.136-1.41,3.153-0.544,3.49
										c0.866,0.337,4.245-0.462,4.245-0.462l0.973-1.998L193.262,410.728z"/>
									<path style="fill:#454658;" d="M200.727,413.684c0,0-0.265-1.259-1.105-1.565c-0.84-0.306-4.465-0.417-4.72-0.504
										c-0.254-0.087-1.724-0.984-2.125-1.013c-0.401-0.029-3.229,2.689-3.946,2.602c-0.717-0.087,1.372-2.17,1.033-2.451
										c-0.339-0.281-3.697-2.927-3.839-3.245c-0.132-0.297-3.827,2.223-7.591,1.909c-0.413-0.034-0.784,0.242-0.822,0.654
										l-0.471,5.188l0.079,1.519l1.715,0.327l4.692-0.511l6.399,0.641l3.284,0.254l4.881-1.203l2.723-2.363L200.727,413.684z"/>
									<path style="fill:#381905;" d="M201.171,414.535c0.022-0.072-0.111-1.168-0.416-1.277c-0.305-0.109-0.408,1.27-0.605,1.33
										c-0.196,0.06-3.24,2.016-8.75,2.153c-5.51,0.137-6.429-1.213-9.025-1.203c-2.596,0.01-5.065,1.012-5.232-0.277
										c-0.079,0.217-0.911,2.589,0.242,3.715c0.622,0.607,1.53,0.569,2.948,0.488c2.543-0.145,3.416-0.509,5.215-1.001
										c0.763-0.209,1.855,0.631,4.258,0.757C192.209,419.345,200.061,418.163,201.171,414.535z"/>
									<g>
										<path style="fill:#454658;" d="M193.007,411.014c0.091-0.01,0.167-0.079,0.182-0.173c0.019-0.114-0.059-0.22-0.172-0.239
											c-1.23-0.2-2.508-0.108-3.695,0.268c-0.109,0.034-0.17,0.151-0.136,0.261c0.035,0.11,0.153,0.172,0.261,0.135
											c1.126-0.356,2.338-0.444,3.503-0.253C192.97,411.016,192.989,411.016,193.007,411.014z"/>
									</g>
									<g>
										<path style="fill:#454658;" d="M189.624,411.057c0.04-0.004,0.079-0.02,0.111-0.048c0.167-0.141,0.337-0.301,0.511-0.465
											c0.382-0.359,0.776-0.729,1.183-0.94c0.102-0.053,0.142-0.178,0.089-0.28c-0.053-0.102-0.179-0.141-0.28-0.089
											c-0.458,0.237-0.874,0.628-1.276,1.006c-0.169,0.159-0.334,0.314-0.495,0.45c-0.088,0.074-0.099,0.205-0.025,0.293
											C189.489,411.039,189.557,411.064,189.624,411.057z"/>
									</g>
									<g>
										<path style="fill:#454658;" d="M193.176,410.829c0.073-0.008,0.14-0.055,0.17-0.127c0.043-0.107-0.008-0.228-0.114-0.272
											c-1.102-0.452-3.871-1.282-5.393-0.942c-0.112,0.025-0.183,0.136-0.158,0.248c0.025,0.112,0.137,0.187,0.248,0.158
											c1.289-0.283,3.832,0.382,5.146,0.921C193.108,410.829,193.143,410.833,193.176,410.829z"/>
									</g>
									<g>
										<path style="fill:#454658;" d="M187.712,409.568c0.043-0.005,0.085-0.023,0.119-0.055
											c0.489-0.458,1.309-1.033,1.907-1.338c0.102-0.052,0.143-0.177,0.091-0.28c-0.052-0.103-0.178-0.144-0.28-0.091
											c-0.628,0.319-1.488,0.923-2.002,1.404c-0.084,0.079-0.088,0.21-0.01,0.294
											C187.583,409.554,187.649,409.575,187.712,409.568z"/>
									</g>
									<g>
										<path style="fill:#454658;" d="M190.673,409.115c0.072-0.008,0.137-0.052,0.168-0.123
											c0.046-0.105-0.002-0.228-0.107-0.274c-1.122-0.491-2.943-0.699-4.148-0.478c-0.113,0.021-0.188,0.129-0.167,0.242
											c0.021,0.114,0.13,0.189,0.242,0.167c1.133-0.207,2.85-0.012,3.906,0.45C190.602,409.114,190.638,409.119,190.673,409.115
											z"/>
									</g>
									<g>
										<path style="fill:#454658;" d="M185.957,407.914c0.032-0.004,0.063-0.014,0.092-0.033
											c0.847-0.562,2.254-0.717,3.203-0.356c0.108,0.041,0.228-0.013,0.268-0.12c0.041-0.108-0.013-0.227-0.121-0.268
											c-1.079-0.411-2.618-0.24-3.581,0.398c-0.096,0.063-0.122,0.193-0.059,0.288
											C185.805,407.89,185.882,407.922,185.957,407.914z"/>
									</g>
									<g>
										<path style="fill:#454658;" d="M186.527,408.538c0.05-0.005,0.097-0.029,0.133-0.068l0.266-0.304
											c0.478-0.552,1.2-1.385,1.698-1.677c0.099-0.059,0.132-0.186,0.074-0.285c-0.058-0.099-0.185-0.133-0.285-0.074
											c-0.556,0.327-1.276,1.157-1.801,1.763l-0.263,0.301c-0.076,0.086-0.068,0.218,0.017,0.293
											C186.412,408.528,186.471,408.544,186.527,408.538z"/>
									</g>
								</g>
							</g>
							<g>
								<g>
									<path style="fill:#323444;" d="M175.171,276.379c0,0,13.611,64.773,10.499,75.285c-3.113,10.512-16.147,6.981-16.922,1.348
										c-0.774-5.632-22.376-71.711-22.376-71.711c-1.269-8.104,4.389-15.725,12.3-16.879
										C166.323,263.307,173.731,268.582,175.171,276.379z"/>
								</g>
							</g>
						</g>
					</g>
					<g>
						<g>
							<path style="fill:#E87578;" d="M195.777,229.293c2.366-1.516,3.056-4.663,1.54-7.029c-1.516-2.366-4.662-3.056-7.029-1.54
								c-2.366,1.516-3.056,4.663-1.54,7.029C190.264,230.119,193.411,230.809,195.777,229.293z"/>
							<path style="fill:#E87578;" d="M168.794,201.706c3.646-2.336,4.709-7.185,2.373-10.831
								c-2.335-3.646-7.185-4.709-10.831-2.373c-3.646,2.336-4.709,7.185-2.373,10.831
								C160.299,202.979,165.148,204.041,168.794,201.706z"/>
							<path style="fill:#0DB3F1;" d="M171.181,189.355l26.877,32.468c1.772,2.767,0.966,6.447-1.801,8.219
								c-2.182,1.398-4.931,1.191-6.866-0.316l0.004,0.004l-0.011-0.01c-0.117-0.091-0.231-0.186-0.341-0.286
								c-0.098-0.089-0.186-0.192-0.278-0.289l-30.458-27.589c-5.604-5.127-2.028-11.876,1.338-14.032
								C163.439,185.093,168.397,185.947,171.181,189.355z"/>
						</g>
						<g>
							<g>
								<path style="fill:#0DB3F1;" d="M187.852,222.141l-0.003-0.002l0.025-0.043c0.009-0.016,0.019-0.031,0.028-0.047
									l17.369-29.589l6.919,4.089l-13.642,30.746c-0.041,0.098-0.083,0.195-0.129,0.291l-0.057,0.129l-0.006-0.004
									c-0.222,0.438-0.496,0.859-0.835,1.245c-2.17,2.467-5.93,2.708-8.397,0.538
									C186.983,227.612,186.521,224.535,187.852,222.141z"/>
								<path style="fill:#E87578;" d="M208.117,187.614l0.021,0.011c0.112-0.185,0.239-0.364,0.386-0.532
									c1.342-1.525,3.665-1.674,5.19-0.333c1.221,1.074,1.557,2.776,0.956,4.195l0.003,0.001l-0.023,0.051
									c-0.003,0.007-0.006,0.015-0.01,0.022l-2.449,5.519l-6.919-4.089L208.117,187.614z"/>
							</g>
						</g>
						<g>
							<g>
								<path style="fill:#0DB3F1;" d="M130.296,230.665c0.479-12.284,1.281-24.077,2.325-35.342
									c1.143-12.34,20.127-11.354,21.099-11.422c2.337-0.163,12.435-0.865,17.461,5.453c3.163,3.976,2.673,8.664,2.304,16.048
									c-0.499,9.979,0.385,19.997-0.142,29.975c-0.523,9.914,0.082,24.214,5.399,42.608c-4.3,2.285-11.741,5.521-21.513,6.31
									c-0.103,0.008-1.257,0.168-1.359,0.175c-0.313-1.557-0.766-4.245-1.079-4.334c0,1.433,0,2.866,0,4.299
									c-11.373,0.409-20.179-2.826-24.596-4.789C129.572,263.526,129.586,248.853,130.296,230.665z"/>
							</g>
						</g>
						
							<path style="fill:none;stroke:#08051A;stroke-width:0.6095;stroke-linecap:round;stroke-linejoin:round;stroke-miterlimit:10;" d="
							M155.277,193.656c-0.115,17.592-0.23,35.185-0.344,52.778v34.425"/>
						<g>
							<g>
								<g>
									<path style="fill:#08051A;" d="M154.47,149.521c0.19,0.266,10.875-1.475,8.413,10.99
										c-0.706,3.573-13.484-4.326-12.321-4.976C151.725,154.886,154.47,149.521,154.47,149.521z"/>
									<g>
										<g>
											<path style="fill:#E87578;" d="M155.776,185.322c-0.014,0.052-0.55,0.597-1.133,1.179
												c-1.139,1.138-2.846,1.594-4.351,1.023c-0.326-0.123-0.616-0.282-0.827-0.484c-1.365-5.011-2.729-10.022-4.094-15.033
												l6.981,0.743L155.776,185.322z"/>
											<path style="fill:#08051A;" d="M155.375,183.85l-3.022-11.1l-6.276-0.442
												C147.929,176.309,151.518,181.804,155.375,183.85z"/>
										</g>
										<path style="fill:#E87578;" d="M144.569,170.373c0.905,1.709,1.993,3.2,1.993,3.2c0.331,0.322,0.692,0.75,1.016,1.302
											c0.544,0.926,4.244,4.617,9.39,4.406c0.818-0.033,3.396-0.174,5.649-1.996c0,0,1.152-0.932,1.998-2.323
											c2.01-3.306,2.722-10.394-0.666-16.731c-1.357-2.539-5.17-9.669-12.027-9.497c-5.548,0.139-10.337,4.988-11.126,9.673
											C140.178,162.082,142.033,165.584,144.569,170.373z"/>
										
											<path style="fill:none;stroke:#08051A;stroke-width:0.6095;stroke-linecap:round;stroke-linejoin:round;stroke-miterlimit:10;" d="
											M164.879,163.231c-0.131-0.373-0.317-0.747-0.638-0.977c-0.322-0.23-0.809-0.265-1.091,0.011
											c-0.317,0.31-0.25,0.827-0.161,1.26"/>
										
											<path style="fill:none;stroke:#08051A;stroke-width:0.6095;stroke-linecap:round;stroke-linejoin:round;stroke-miterlimit:10;" d="
											M157.992,166.243c0.071-0.505-0.192-1.041-0.634-1.294c-0.443-0.254-1.038-0.209-1.438,0.107
											c-0.4,0.316-0.58,0.885-0.435,1.374"/>
										<path style="fill:#08051A;" d="M163.012,169.099c-1.263,0.683-2.799,0.841-4.175,0.43
											c0.188,0.689,0.754,1.534,1.372,1.893c0.618,0.36,1.426,0.41,2.047,0.056C162.877,171.125,163.195,169.79,163.012,169.099
											z"/>
										<path style="fill:#08051A;" d="M141.02,169.681c2.245-0.055,5.206-0.671,5.971-0.838c0.091-0.02,0.133-0.118,0.083-0.197
											c-0.333-0.523-1.31-2.296-0.678-4.201c0.347-1.048,0.955-0.966,1.195-1.93c0.529-2.132-2.171-3.638-1.785-5.207
											c0.219-0.894,1.451-1.505,4.81-2.228c7.32-1.578,9.816-0.56,11.514-2.475c1.382-1.558,1.576-4.087,0.761-5.949
											c-0.951-2.175-3.204-3.288-5.033-3.496c-2.878-0.326-4.425,1.623-8.218,3.949c-7.893,4.84-11.835,3.037-13.295,6.312
											c-0.742,1.665,0.398,4.831,2.68,11.165C139.807,166.76,140.527,168.519,141.02,169.681z"/>
										
											<path style="fill:none;stroke:#08051A;stroke-width:0.6095;stroke-linecap:round;stroke-linejoin:round;stroke-miterlimit:10;" d="
											M160.294,162.88c0,0,0.614,1.98,0.749,2.751c0.1,0.571,1.836-0.102,1.973,0.143c0.137,0.244-0.741,1.054-1.478,1.666"/>
										<path style="fill:#E87578;" d="M146.2,169.295c1.126,1.6,1.052,3.592-0.165,4.448c-1.217,0.856-3.116,0.251-4.242-1.35
											c-1.126-1.601-1.052-3.592,0.165-4.448C143.175,167.09,145.074,167.694,146.2,169.295z"/>
									</g>
									<path style="fill:#08051A;" d="M162.054,158.694c0.026,0.31,1.131,0.444,1.568,0.473c0.44,0.03,1.548,0.046,1.617-0.26
										c0.061-0.271-0.7-0.792-1.488-0.861C162.911,157.972,162.031,158.411,162.054,158.694z"/>
									<path style="fill:#08051A;" d="M155.623,161.922c0.149,0.218-0.62,1.142-1.798,1.946c-1.178,0.804-2.319,1.182-2.468,0.965
										c-0.149-0.218,0.482-1.346,1.66-2.149C154.195,161.879,155.474,161.704,155.623,161.922z"/>
								</g>
							</g>
							
								<path style="fill:none;stroke:#08051A;stroke-width:0.6095;stroke-linecap:round;stroke-linejoin:round;stroke-miterlimit:10;" d="
								M142.839,169.662c0.904,0.205,1.703,0.83,2.12,1.658c-0.181-0.144-0.459-0.15-0.646-0.014
								c-0.187,0.136-0.267,0.402-0.185,0.619"/>
						</g>
						<g>
							<path style="fill:#323444;" d="M212.47,192.068c-0.5,0.882-0.069,1.929,0.663,2.198c0.677,0.249,1.601-0.169,1.888-1.052
								c9.276-21.438,18.553-42.875,27.829-64.313c0.11-0.22,0.018-0.487-0.192-0.589c-0.219-0.107-0.498-0.001-0.593,0.236
								C232.2,149.722,222.335,170.895,212.47,192.068z"/>
							<path style="fill:#E87578;" d="M214.992,186.991c0.002-0.033,0.007-0.065,0.013-0.097c0.057-0.276,0.243-0.508,0.452-0.697
								c0.209-0.189,0.445-0.346,0.647-0.542c0.195-0.189,0.365-0.454,0.301-0.717c-0.036-0.147-0.139-0.266-0.211-0.399
								c-0.141-0.258-0.165-0.578-0.064-0.855c0.224-0.609,0.994-0.788,1.529-1.02c0.58-0.252,1.161-0.505,1.741-0.757
								c0.412-0.179,0.823-0.358,1.235-0.537c0.13-0.057,0.327-0.102,0.439-0.191c-0.493,0.389-0.029,0.244-0.225,0.205
								c0.247,0.05,0.641-0.065,0.943,0.619c0.107,0.526,0.048,0.757,0.015,1.314c-0.182,0.477-0.964,0.696-1.145,0.724
								c-0.296,0.046,0.95,0.924,0.689,1.654c-0.34,0.657-1.521,1.166-1.837,1.341c-0.269,0.148,0.458,1.042-0.618,2.18
								c-0.047,0.05-0.104,0.092-0.153,0.14c-0.438,0.068-0.876,0.135-1.313,0.203c-0.443,0.068-0.886,0.137-1.329,0.205
								c-0.333,0.051-0.786,0.16-0.966-0.228c-0.088-0.189-0.06-0.416,0.032-0.603c0.092-0.187,0.242-0.338,0.399-0.475
								c0.165-0.143,0.361-0.342,0.275-0.542c-0.083-0.193-0.351-0.197-0.538-0.293
								C215.082,187.508,214.974,187.242,214.992,186.991z"/>
							<g>
								
									<path style="fill:none;stroke:#08051A;stroke-width:0.6095;stroke-linecap:round;stroke-linejoin:round;stroke-miterlimit:10;" d="
									M221.074,181.179c0,0-4.888,2.006-4.941,2.654c-0.053,0.647-0.033,1.851,3.748,0.302"/>
								
									<path style="fill:none;stroke:#08051A;stroke-width:0.6095;stroke-linecap:round;stroke-linejoin:round;stroke-miterlimit:10;" d="
									M217.384,184.874c0,0-2.638,0.949-2.473,2.274c0.164,1.325,4.604-0.114,4.604-0.114"/>
								
									<path style="fill:none;stroke:#08051A;stroke-width:0.6095;stroke-linecap:round;stroke-linejoin:round;stroke-miterlimit:10;" d="
									M217.512,187.544c0,0-2.78,0.927-2.47,1.845c0.31,0.918,3.547-0.218,3.547-0.218"/>
							</g>
						</g>
						<g>
							<path style="fill:#E87578;" d="M134.33,201.97c2.846,3.264,7.799,3.602,11.062,0.756c3.264-2.846,3.602-7.799,0.756-11.063
								c-2.846-3.263-7.799-3.602-11.062-0.756C131.822,193.754,131.484,198.706,134.33,201.97z"/>
							<path style="fill:#0DB3F1;" d="M146.432,202.793l-30.663,28.919c-2.647,1.948-6.371,1.381-8.319-1.266
								c-1.536-2.087-1.507-4.844-0.128-6.872l-0.004,0.004l0.009-0.011c0.083-0.122,0.17-0.243,0.263-0.359
								c0.083-0.104,0.18-0.198,0.271-0.297l25.563-32.177c4.754-5.924,11.72-2.791,14.089,0.429
								C150.184,194.792,149.653,199.795,146.432,202.793z"/>
						</g>
						<path style="fill:#E87578;" d="M207.733,188.267c-0.096-1.773,0.923-7.086,2.126-7.591c1.203-0.505,5.561,1.053,4.628,3.022
							c-0.932,1.969-2.001-0.494-2.487-0.184c-0.486,0.31,1.743,3.029,1.18,4.102"/>
						
							<path style="fill:none;stroke:#08051A;stroke-width:0.6095;stroke-linecap:round;stroke-linejoin:round;stroke-miterlimit:10;" d="
							M209.859,180.676c1.203-0.505,5.561,1.053,4.628,3.022c-0.932,1.969-2.001-0.494-2.487-0.184
							c-0.486,0.31,1.743,3.029,1.18,4.102"/>
					</g>
				</g>
			</g>
		</g>
		<path style="fill:#E87578;" d="M155.776,185.322c0,0,0.285,6.217-0.134,6.54c-0.42,0.323-6.269-2.615-6.464-5.879
			C148.983,182.719,155.776,185.322,155.776,185.322z"/>
		
			<path style="fill:none;stroke:#08051A;stroke-width:0.6095;stroke-linecap:round;stroke-linejoin:round;stroke-miterlimit:10;" d="
			M157.692,191.998c2.117-0.106,4.537-0.143,6.654-0.249c-2.701-2.123-5.45-4.217-8.376-6.018c0.099,2.123-0.039,4.257-0.412,6.349
			c-2.513-1.382-4.892-3.231-6.779-5.39c-1.132,2.037-2.424,4.216-3.892,6.026c2.433,0.225,5.01,0.141,7.41-0.317"/>
		
			<line style="fill:none;stroke:#08051A;stroke-width:0.6095;stroke-linecap:round;stroke-linejoin:round;stroke-miterlimit:10;" x1="173.534" y1="195.104" x2="173.285" y2="247.842"/>
		<g>
			<g>
				<g>
					<path style="fill:#E87578;" d="M124.432,265.631l0.022-0.01c0.101,0.192,0.216,0.378,0.353,0.555
						c1.246,1.604,3.556,1.894,5.16,0.648c1.284-0.998,1.723-2.676,1.209-4.13l0.003-0.001l-0.02-0.053
						c-0.003-0.008-0.005-0.015-0.008-0.023l-2.714-7.284l-7.39,3.631L124.432,265.631z"/>
					<path style="fill:#0DB3F1;" d="M108.023,222.672c-2.251,1.749-2.899,4.792-1.717,7.262l-0.003,0.001l0.022,0.044
						c0.008,0.016,0.017,0.033,0.025,0.049l14.696,28.936l7.39-3.631l-11.14-29.893c-0.034-0.1-0.071-0.2-0.111-0.299l-0.049-0.132
						l-0.007,0.003c-0.195-0.451-0.443-0.887-0.758-1.293C114.356,221.125,110.618,220.656,108.023,222.672z"/>
				</g>
			</g>
			<g>
				<g>
					<path style="fill:#E87578;" d="M124.375,269.606c-0.161-1.129-0.175-2.325-0.282-3.208c-0.245-2.021,0.022-4.158,2.196-4.931
						c1.83-0.651,3.756,0.004,5.352,0.95c1.509,0.894,3.333,1.994,4.149,3.618c0.346,0.689,0.481,1.462,0.612,2.223
						c0.069,0.401,0.138,0.811,0.066,1.211c-0.083,0.458-0.479,0.932-0.933,0.827c-0.431-0.099-0.588-0.616-0.704-1.043
						c-0.116-0.427-0.391-0.93-0.831-0.888c-0.075,0.966,0.02,1.944,0.279,2.878c0.211,0.761,0.439,1.824-0.519,2.213
						c-0.843,0.342-1.774-0.824-2.601-0.446c-0.491,0.224-0.72,0.874-1.262,0.994c-0.755,0.168-1.313-0.691-1.941-0.955
						c-0.837-0.351-1.877-0.055-2.566-0.788C124.799,271.633,124.524,270.648,124.375,269.606z"/>
				</g>
			</g>
		</g>
	</g>
	<g>
		<g>
			<g>
				<g>
					<g>
						<g>
							<path style="fill:#FF8B6A;" d="M281.743,234.175c-3.769-0.904-8.275,5.916-8.206,12.994
								c-0.156,1.129,2.89,28.006,3.213,35.326c0.152,3.46,3.232,6.094,6.735,5.63c3.036-0.403,5.193-3.184,5.143-6.246
								C288.499,273.968,292.245,236.694,281.743,234.175z"/>
						</g>
						<path style="fill:#CB374D;" d="M289.142,232.837c0,0,0.572,22.583,1.066,35.764c0,0-10.392,4.47-16.609,2.66
							c0,0-0.651-26.295,0.08-26.899C274.41,243.758,278.369,231.369,289.142,232.837z"/>
					</g>
					<path style="fill:#FF8B6A;" d="M287.318,313.981c-0.422,0.037-0.775,0.256-1.096,0.554c-0.766,0.504-1.597,1.779-2.708,3.093
						c-1.754,2.076-3.543,3.449-2.337,4.468c0.726,0.614,1.884,0.537,3.074-0.064c-0.194,4.252,0.258,8.634,0.391,8.82
						c0.39,0.546,1.391,0.357,1.785,0.417c0.353,0.054,0.081,0.708,1.017,0.796c0.509-0.062,1.009-0.194,1.504-0.393
						c0.378-0.309,0.5-0.701,0.471-0.874c-0.048-0.282,1.029,0.029,1.611-0.427c0.025-0.023,0.045-0.054,0.069-0.077
						c0.492-0.507,0.151-1.472,0.214-1.811c0.053-0.288,1.082,0.1,1.787-1.218c0.693-1.705,1.046-3.824,0.808-6.391
						C293.151,312.697,291.074,313.648,287.318,313.981z"/>
					<g>
						<path style="fill:#FF8B6A;" d="M287.006,321.473c-0.441-1.322-8.23-25.267-10.054-36.768
							c-0.501-3.157,1.585-6.144,4.721-6.762l0,0c3.242-0.639,6.384,1.489,6.992,4.738l5.015,36.666L287.006,321.473z"/>
					</g>
					<g>
						<path style="fill:#FF8B6A;" d="M233.561,237.608c3.115,2.306,7.444,6.933,6.464,13.943c0.009,1.14-6.475,27.401-7.738,34.618
							c-0.597,3.412-3.991,5.627-7.404,4.715c-2.959-0.791-4.739-3.827-4.295-6.857
							C221.735,276.198,227.753,233.308,233.561,237.608z"/>
					</g>
					<path style="fill:#FF8B6A;" d="M203.165,257.516c-0.087-0.462-0.367-0.828-0.732-1.149c-0.64-0.791-2.139-1.569-3.712-2.651
						c-2.484-1.71-4.196-3.534-5.19-2.091c-0.598,0.868-0.387,2.14,0.407,3.387c-4.717,0.251-9.506,1.23-9.697,1.398
						c-0.561,0.491-0.241,1.576-0.265,2.016c-0.021,0.396-0.772,0.167-0.767,1.21c0.124,0.555,0.325,1.093,0.599,1.618
						c0.382,0.383,0.829,0.475,1.016,0.424c0.307-0.084,0.081,1.14,0.648,1.733c0.028,0.024,0.065,0.043,0.093,0.067
						c0.613,0.488,1.642,0.006,2.023,0.037c0.324,0.027,0.008,1.206,1.541,1.84c1.959,0.578,4.337,0.736,7.145,0.192
						C205.221,263.816,203.944,261.627,203.165,257.516z"/>
					<g>
						<path style="fill:#FF8B6A;" d="M195.8,260.228c0.863,1.094,16.62,20.734,25.24,28.564c2.366,2.15,6.007,2.042,8.243-0.242l0,0
							c2.312-2.361,2.254-6.155-0.129-8.445l-27.917-24.294L195.8,260.228z"/>
					</g>
					<g>
						<g>
							<g>
								<path style="fill:#FF8B6A;" d="M262.67,228.308l0.02-16.34l-7.698-0.041l-0.03,18.319
									C257.632,230.181,260.184,229.438,262.67,228.308z"/>
								<path style="fill:#CB374D;" d="M288.432,227.086c-5.093-6.543-53.848-2.657-56.889,0.843
									c-3.041,3.5,7.219,32.649,7.217,44.841c-0.003,15.558-4.196,27.883-4.196,27.883s12.127,2.638,28.422,2.862
									c16.295,0.224,19.831-9.771,19.831-9.771s-2.74-21.164-2.256-25.305C281.046,264.3,291.443,230.954,288.432,227.086z"/>
								<g>
									<path style="fill:#454658;" d="M282.818,293.745c1.055,3.339,2.006,7.025,2.734,11.037
										c2.182,12.027,1.561,22.613,0.307,30.624c-9.274,1.126-20.93,0.054-33.688,0.219c-10.704,0.138-18.424,0.105-18.424,0.105
										c-3.184-13.53-5.508-28.098,2.368-40.732C228.831,306.686,283.143,296.631,282.818,293.745z"/>
								</g>
								<g>
									<g>
										<g>
											<g>
												<path style="fill:#FF8B6A;" d="M284.298,405.214c-0.673-8.251-2.514-15.986-4.967-19.227
													c-2.157-2.85-10.692-3.101-11.423,1.251c-2.304,9.493,5.028,51.058,5.198,59.529c0.084,4.196-0.72,5.588,2.376,6.4
													c3.096,0.811,5.169-0.925,5.169-0.925c1.496-2.116,0.8-5.042,1.087-8.337
													C282.024,440.609,284.971,413.465,284.298,405.214z"/>
											</g>
										</g>
										<path style="fill:#454658;" d="M282.594,392.654c0.988,3.588,1.71,7.918,2.085,12.528
											c0.581,7.114-1.191,24.904-1.978,32.813c-0.007,0.067-0.165,1.671-0.265,2.684c-0.049,0.493-0.388,0.92-0.867,1.045
											c-2.755,0.722-5.778,0.593-8.559-0.21c-0.462-0.134-0.79-0.541-0.845-1.019c-0.369-3.162-0.884-7.066-1.442-11.283
											c-1.21-9.161-2.582-19.542-3.25-28.063c-0.196-0.463-0.345-0.943-0.456-1.466c-3.588-17.064-5.776-76.441-5.798-77.039
											l-0.007-0.188l0.145-0.121c3.893-3.228,10.12-6.993,17.711-6.578c1.951,0.106,4.163,0.227,6.032,1.627
											c2.754,2.063,1.119,25.78-1.127,54.229C283.209,381.305,282.548,389.681,282.594,392.654z"/>
									</g>
								</g>
								<g>
									<g>
										<g>
											<g>
												<path style="fill:#FF8B6A;" d="M244.605,409.239c-0.314-8.854,0.679-17.303,2.881-21.053
													c1.937-3.298,10.976-4.629,12.297-0.096c3.632,9.802,1.024,54.891,1.9,63.914c0.434,4.47,1.462,5.849-1.727,7.098
													c-3.189,1.248-5.609-0.338-5.609-0.338c-1.854-2.062-1.479-5.259-2.194-8.725
													C251.437,446.574,244.919,418.093,244.605,409.239z"/>
											</g>
										</g>
										<path style="fill:#454658;" d="M244.85,395.679c-0.603,3.936-0.83,8.628-0.654,13.575
											c0.27,7.633,4.372,26.319,6.195,34.626c0.015,0.07,0.384,1.755,0.617,2.819c0.113,0.518,0.526,0.929,1.052,1.003
											c3.018,0.423,6.215-0.09,9.07-1.291c0.475-0.2,0.772-0.673,0.771-1.188c-0.003-3.407,0.059-7.62,0.125-12.171
											c0.144-9.888,0.307-21.091-0.046-30.23c0.151-0.517,0.249-1.046,0.302-1.614c1.686-18.583-3.395-81.961-3.446-82.599
											l-0.016-0.2l-0.169-0.11c-4.54-2.945-11.628-6.17-19.644-4.782c-2.061,0.356-4.396,0.76-6.208,2.481
											c-2.669,2.536,2.026,27.538,7.962,57.493C242.78,383.694,244.528,392.513,244.85,395.679z"/>
									</g>
								</g>
							</g>
						</g>
						<g>
							<g>
								<path style="fill:#381905;" d="M264.682,463.879c-0.076,0.225,0.037,3.382-0.26,3.718c-0.297,0.336-6.536,0.663-8.751,0.457
									c-2.454-0.227-4.955-0.611-7.31-1.35c-0.492-0.154-0.979-0.328-1.447-0.544c-0.431-0.199-0.938-0.385-1.204-0.786
									c-0.767-1.158-0.95-2.699-0.468-4.002"/>
							</g>
							<g>
								<path style="fill:#FFFFFF;" d="M245.693,460.367c-0.2,0.319-0.506,0.74-0.445,1.143c0.057,0.375,0.385,0.782,0.698,0.973
									c0.016,0.009,0.031,0.019,0.047,0.029c1.203,0.717,2.853,0.961,4.206,1.217c1.889,0.357,3.807,0.574,5.727,0.646
									c5.108,0.191,8.375,0.329,8.681-0.27c0.305-0.599-0.223-1.434-0.223-1.434L245.693,460.367z"/>
							</g>
							<g>
								<path style="fill:#454658;" d="M264.258,458.829c-0.051-0.892-0.105-1.797-0.392-2.642c-0.287-0.846-0.843-1.64-1.655-2.013
									c-1.145-0.526-2.501-0.113-3.616,0.474c-1.115,0.587-2.175,1.356-3.416,1.576c-0.515,0.091-1.066,0.079-1.537-0.148
									c-0.764-0.367-1.183-1.238-1.245-2.083c-0.063-0.845,0.171-1.681,0.402-2.497c-0.226-0.038-0.453-0.076-0.679-0.114
									c0.16,0.027-0.03,1.624-0.057,1.788c-0.115,0.681-0.368,1.278-0.613,1.916c-0.431,1.121-0.753,2.036-1.763,2.81
									c-0.861,0.66-1.879,1.077-2.867,1.524c-0.459,0.208-0.958,0.47-1.126,0.946c-0.194,0.551,0.167,1.174,0.668,1.473
									c0.556,0.332,1.384,0.529,2.011,0.736c0.922,0.305,2.039,0.276,3,0.356c2.136,0.177,4.278,0.28,6.421,0.352
									c1.36,0.045,2.721,0.078,4.081,0.109c0.802,0.018,2.173,0.249,2.509-0.722c0.17-0.491,0.029-1.156,0-1.656
									C264.341,460.286,264.299,459.557,264.258,458.829z"/>
							</g>
							<g>
								<path style="fill:#381905;" d="M253.295,463.241c0.119,0,0.22-0.091,0.232-0.211c0.145-1.542,1.117-3.083,2.599-4.121
									c1.216-0.853,2.777-1.424,4.772-1.742c0.703-0.111,1.285-0.157,1.834-0.011c0.609,0.16,1.083,0.582,1.209,1.075
									c0.032,0.126,0.163,0.204,0.283,0.167c0.125-0.031,0.2-0.158,0.168-0.284c-0.166-0.653-0.771-1.206-1.541-1.409
									c-0.663-0.177-1.365-0.105-2.025,0.003c-2.068,0.329-3.692,0.924-4.967,1.819c-1.592,1.117-2.637,2.784-2.795,4.459
									c-0.012,0.127,0.082,0.242,0.21,0.253C253.28,463.241,253.287,463.241,253.295,463.241z"/>
							</g>
							<g>
								<path style="fill:#381905;" d="M261.877,456.922c0.106,0,0.201-0.071,0.227-0.178c0.224-0.928,0.176-1.937-0.135-2.843
									c-0.042-0.122-0.179-0.185-0.295-0.144c-0.122,0.042-0.186,0.175-0.145,0.296c0.282,0.82,0.324,1.738,0.122,2.581
									c-0.03,0.125,0.047,0.251,0.172,0.28C261.841,456.92,261.859,456.922,261.877,456.922z"/>
							</g>
							<g>
								<path style="fill:#381905;" d="M261.209,457.022c0.118,0,0.22-0.089,0.232-0.209c0.096-0.958,0.04-1.918-0.164-2.857
									c-0.028-0.125-0.148-0.2-0.277-0.178c-0.125,0.027-0.205,0.151-0.177,0.276c0.195,0.891,0.246,1.804,0.156,2.711
									c-0.013,0.129,0.081,0.242,0.209,0.255C261.194,457.022,261.202,457.022,261.209,457.022z"/>
							</g>
							<g>
								<path style="fill:#FFFFFF;" d="M263.47,465.247c0.174-0.017,0.115,1.353-0.013,1.628c-0.127,0.275-3.811,0.471-3.96,0.295
									c-0.149-0.177-0.335-1.981-0.135-1.955C259.563,465.242,262.768,465.317,263.47,465.247z"/>
							</g>
							<g>
								<path style="fill:#381905;" d="M251.333,456.793c0.118,0.238,0.291,0.447,0.404,0.688c0.113,0.241,0.156,0.541,0.011,0.764
									c-0.18,0.278-0.601,0.321-0.888,0.155c-0.287-0.166-0.454-0.486-0.533-0.808c-0.165-0.669,0.02-1.403,0.445-1.939
									c0.219-0.276,0.563-0.605,0.445-0.048C251.131,456.009,251.147,456.416,251.333,456.793z"/>
							</g>
							<g>
								<path style="fill:#381905;" d="M249.989,458.269c0.073,0.148,0.18,0.276,0.249,0.425c0.07,0.149,0.096,0.335,0.007,0.472
									c-0.112,0.172-0.371,0.198-0.549,0.096c-0.177-0.103-0.28-0.3-0.33-0.499c-0.102-0.413,0.012-0.867,0.275-1.199
									c0.135-0.17,0.348-0.374,0.275-0.03C249.865,457.785,249.874,458.036,249.989,458.269z"/>
							</g>
							<g>
								<path style="fill:#381905;" d="M248.992,459.047c0.045,0.091,0.111,0.171,0.154,0.263c0.043,0.092,0.06,0.207,0.004,0.292
									c-0.069,0.106-0.23,0.123-0.339,0.059c-0.109-0.063-0.173-0.185-0.204-0.308c-0.063-0.256,0.007-0.536,0.17-0.741
									c0.084-0.105,0.215-0.231,0.17-0.019C248.914,458.748,248.92,458.903,248.992,459.047z"/>
							</g>
						</g>
						<g>
							<g>
								<path style="fill:#381905;" d="M269.115,460.184c0.076,0.225-0.037,3.382,0.26,3.718c0.297,0.336,6.536,0.663,8.751,0.457
									c2.454-0.227,4.955-0.611,7.31-1.35c0.492-0.154,0.979-0.328,1.447-0.544c0.431-0.199,0.938-0.385,1.204-0.786
									c0.767-1.158,0.95-2.699,0.468-4.002"/>
							</g>
							<g>
								<path style="fill:#FFFFFF;" d="M288.104,456.672c0.2,0.319,0.506,0.74,0.445,1.143c-0.057,0.375-0.385,0.782-0.698,0.973
									c-0.016,0.009-0.031,0.019-0.047,0.029c-1.203,0.717-2.853,0.961-4.207,1.217c-1.888,0.357-3.806,0.574-5.727,0.646
									c-5.108,0.191-8.375,0.329-8.681-0.27c-0.305-0.599,0.223-1.434,0.223-1.434L288.104,456.672z"/>
							</g>
							<g>
								<path style="fill:#454658;" d="M269.539,455.134c0.051-0.892,0.105-1.797,0.392-2.642c0.287-0.846,0.843-1.64,1.655-2.013
									c1.145-0.526,2.5-0.113,3.616,0.474c1.115,0.587,2.175,1.356,3.416,1.576c0.515,0.091,1.066,0.079,1.537-0.148
									c0.764-0.367,1.183-1.238,1.245-2.083c0.063-0.845-0.171-1.681-0.402-2.497c0.226-0.038,0.453-0.076,0.679-0.114
									c-0.16,0.027,0.029,1.623,0.057,1.788c0.114,0.681,0.368,1.278,0.613,1.916c0.431,1.121,0.753,2.037,1.763,2.81
									c0.861,0.66,1.879,1.077,2.867,1.524c0.459,0.208,0.958,0.47,1.126,0.946c0.194,0.551-0.167,1.174-0.668,1.473
									c-0.557,0.332-1.385,0.529-2.011,0.736c-0.922,0.305-2.039,0.276-3,0.356c-2.136,0.177-4.278,0.28-6.421,0.352
									c-1.36,0.045-2.721,0.078-4.081,0.109c-0.802,0.018-2.173,0.249-2.509-0.722c-0.17-0.491-0.029-1.156,0-1.656
									C269.456,456.59,269.498,455.862,269.539,455.134z"/>
							</g>
							<g>
								<path style="fill:#381905;" d="M280.502,459.546c-0.119,0-0.22-0.091-0.232-0.211c-0.146-1.542-1.117-3.083-2.599-4.121
									c-1.216-0.853-2.777-1.424-4.772-1.742c-0.703-0.111-1.285-0.156-1.834-0.011c-0.608,0.16-1.083,0.582-1.208,1.075
									c-0.032,0.126-0.163,0.204-0.283,0.167c-0.125-0.031-0.2-0.158-0.168-0.284c0.166-0.653,0.771-1.206,1.541-1.409
									c0.663-0.176,1.365-0.105,2.025,0.004c2.068,0.329,3.692,0.924,4.967,1.819c1.592,1.116,2.637,2.784,2.795,4.459
									c0.012,0.127-0.082,0.242-0.21,0.253C280.517,459.546,280.51,459.546,280.502,459.546z"/>
							</g>
							<g>
								<path style="fill:#381905;" d="M271.92,453.226c-0.106,0-0.201-0.071-0.226-0.178c-0.224-0.927-0.176-1.937,0.135-2.843
									c0.042-0.122,0.179-0.185,0.296-0.143c0.122,0.042,0.186,0.174,0.144,0.296c-0.282,0.82-0.324,1.739-0.122,2.581
									c0.03,0.125-0.047,0.251-0.172,0.28C271.956,453.224,271.938,453.226,271.92,453.226z"/>
							</g>
							<g>
								<path style="fill:#381905;" d="M272.588,453.326c-0.118,0-0.22-0.089-0.232-0.209c-0.096-0.958-0.04-1.919,0.165-2.857
									c0.028-0.126,0.148-0.2,0.277-0.178c0.125,0.027,0.204,0.151,0.177,0.276c-0.195,0.891-0.246,1.804-0.156,2.711
									c0.013,0.129-0.081,0.242-0.209,0.255C272.603,453.326,272.595,453.326,272.588,453.326z"/>
							</g>
							<g>
								<path style="fill:#FFFFFF;" d="M270.327,461.552c-0.174-0.017-0.115,1.354,0.013,1.628c0.128,0.275,3.811,0.471,3.96,0.295
									c0.149-0.176,0.335-1.981,0.135-1.955C274.234,461.546,271.029,461.621,270.327,461.552z"/>
							</g>
							<g>
								<path style="fill:#381905;" d="M282.464,453.097c-0.118,0.238-0.291,0.447-0.404,0.688
									c-0.113,0.241-0.156,0.541-0.011,0.764c0.18,0.278,0.601,0.321,0.888,0.155s0.454-0.486,0.533-0.808
									c0.165-0.669-0.02-1.403-0.445-1.939c-0.219-0.276-0.563-0.605-0.445-0.048C282.666,452.314,282.65,452.721,282.464,453.097
									z"/>
							</g>
							<g>
								<path style="fill:#381905;" d="M283.808,454.574c-0.073,0.147-0.18,0.276-0.249,0.425c-0.07,0.149-0.096,0.334-0.007,0.472
									c0.112,0.172,0.371,0.198,0.549,0.096c0.177-0.102,0.281-0.3,0.33-0.499c0.102-0.413-0.012-0.867-0.275-1.199
									c-0.135-0.17-0.348-0.374-0.275-0.03C283.932,454.089,283.923,454.341,283.808,454.574z"/>
							</g>
							<g>
								<path style="fill:#381905;" d="M284.805,455.351c-0.045,0.091-0.111,0.171-0.154,0.263
									c-0.043,0.092-0.059,0.207-0.004,0.292c0.069,0.106,0.23,0.123,0.339,0.059c0.109-0.063,0.173-0.186,0.204-0.308
									c0.063-0.256-0.007-0.536-0.17-0.741c-0.083-0.105-0.215-0.231-0.17-0.018C284.882,455.052,284.877,455.208,284.805,455.351
									z"/>
							</g>
						</g>
					</g>
					<g>
						<path style="fill:#CB374D;" d="M232.097,231.346c0,0-6.104,21.75-9.823,34.405c0,0,8.975,6.887,15.446,6.66
							c0,0,7.093-25.328,6.533-26.093C243.693,245.553,242.901,232.571,232.097,231.346z"/>
					</g>
				</g>
				
					<path style="fill:none;stroke:#08051A;stroke-width:0.6095;stroke-linecap:round;stroke-linejoin:round;stroke-miterlimit:10;" d="
					M280.784,275.591l0.959-41.416c0.386-2.341,4.804-6.557,4.804-6.557"/>
				
					<path style="fill:none;stroke:#08051A;stroke-width:0.6095;stroke-linecap:round;stroke-linejoin:round;stroke-miterlimit:10;" d="
					M233.279,230.794c0.011,0.749,6.931,16.868,5.481,41.976"/>
			</g>
			<g>
				<path style="fill:#381905;" d="M269.161,193.537c-1.216-4.423-3.706-9.432-7.432-10.053c-0.628-0.105-1.282-0.078-1.928,0.039
					c-0.41-1.506-5.859-3.51-10.229-0.167c-2.421,1.852-3.525,5.056-3.894,8.275h-0.157c-3.031,6.598-15.217,23.905,11.907,31.572
					c0,0-8.43,9.639-2.592,18.621c5.838,8.982,0,12.706,0,12.706s14.391,0.222,11.096-16.211
					c-3.02-15.063-5.621-15.315-6.034-15.252C261.07,222.785,280.843,217.615,269.161,193.537z"/>
			</g>
		</g>
		
			<path style="fill:none;stroke:#08051A;stroke-width:0.6095;stroke-linecap:round;stroke-linejoin:round;stroke-miterlimit:10;" d="
			M236.193,303.378c0,0,9.914,1.936,17.542,1.506c0,0-0.17,18.501-1.542,19.362c-0.922,0.578-5.312,1.459-8.089,1.974
			c-1.458,0.27-2.945-0.187-4-1.229c-1.942-1.919-4.915-4.904-5.202-5.478C234.473,318.652,236.193,303.378,236.193,303.378z"/>
		
			<path style="fill:none;stroke:#08051A;stroke-width:0.6095;stroke-linecap:round;stroke-linejoin:round;stroke-miterlimit:10;" d="
			M281.972,303.378c0,0-9.914,1.936-17.542,1.506c0,0,0.17,18.501,1.542,19.362c0.922,0.578,5.312,1.459,8.089,1.974
			c1.458,0.27,2.945-0.187,4-1.229c1.942-1.919,4.915-4.904,5.202-5.478C283.692,318.652,281.972,303.378,281.972,303.378z"/>
	</g>
	<g>
		<g>
			<g>
				<g>
					<g>
						<g>
							<g>
								<path style="fill:#E87578;" d="M348.753,271.583c0,0,9.922,56.229,15.62,72.049c3.233,8.977,14.712-2.919,13.277-7.655
									c-1.435-4.735-3.082-69.675-7.536-72.134c-1.82-1.005-3.768-0.864-5.713-0.7
									C356.593,263.803,351.107,269.005,348.753,271.583z"/>
								<path style="fill:#E87578;" d="M381.104,346.711c-1.724-7.717-4.485-14.79-7.232-17.533
									c-2.415-2.411-10.522-1.525-10.641,2.688c-0.928,9.283,11.485,47.635,12.761,55.625c0.632,3.959,0.055,5.381,3.091,5.74
									c3.036,0.359,4.767-1.556,4.767-1.556c1.137-2.199,0.093-4.875-0.07-8.03C383.617,380.492,382.828,354.427,381.104,346.711z
									"/>
							</g>
							<path style="fill:#08051A;" d="M387.052,399.723c-0.137,6.976-3.017,12.286-6.419,12.511
								c-5.454,0.36-5.039-7.193-4.902-14.169c0.136-6.977,1.987-11.161,5.396-11.094
								C384.535,387.037,387.188,392.746,387.052,399.723z"/>
							<path style="fill:#E87578;" d="M376.168,388.752c0.599,4.596-0.106,11.133,0.167,12.96c0.585,3.913,7.794,3.629,9.259-1.232
								c0.469-1.555,0.102-8.028-1.556-12.973C382.38,382.562,376.168,388.752,376.168,388.752z"/>
						</g>
						<path style="fill:#454658;" d="M377.837,335.055c1.407,3.264,2.66,7.265,3.623,11.576c1.487,6.653,2.155,23.715,2.453,31.299
							c0.003,0.064,0.064,1.602,0.103,2.574c0.019,0.473-0.246,0.921-0.683,1.103c-2.511,1.046-5.387,1.322-8.124,0.929
							c-0.455-0.066-0.818-0.407-0.934-0.852c-0.766-2.943-1.768-6.568-2.851-10.483c-2.352-8.507-5.017-18.145-6.772-26.117
							c-0.246-0.412-0.451-0.847-0.624-1.327c-5.643-15.669-15.536-71.547-15.636-72.11l-0.031-0.176l0.121-0.133
							c3.257-3.567,8.652-7.949,15.887-8.556c1.86-0.157,3.968-0.334,5.92,0.744c2.877,1.589,4.455,24.239,6.079,51.446
							C376.924,324.238,377.401,332.248,377.837,335.055z"/>
					</g>
					<g>
						<g>
							<g>
								<path style="fill:#E87578;" d="M349.027,272.782c0,0,1.062,57.088-1.492,73.708c-1.449,9.431-14.999-0.039-14.5-4.962
									c0.499-4.923-10.357-68.97-6.458-72.238c1.593-1.336,3.532-1.572,5.472-1.784
									C339.839,266.653,346.222,270.704,349.027,272.782z"/>
								<path style="fill:#E87578;" d="M331.707,352.725c0.21-7.904,1.561-15.376,3.73-18.596c1.907-2.83,10.033-3.517,10.959,0.594
									c2.694,8.932-2.122,48.954-1.84,57.041c0.14,4.006,0.979,5.292-1.931,6.227c-2.91,0.936-4.977-0.611-4.977-0.611
									c-1.538-1.939-1.027-4.767-1.473-7.894C335.73,386.36,331.497,360.629,331.707,352.725z"/>
							</g>
							<path style="fill:#08051A;" d="M336.052,405.892c1.474,6.82,5.321,11.478,8.703,11.045c5.422-0.694,3.563-8.027,2.09-14.847
								c-1.474-6.82-4.094-10.572-7.426-9.851C336.085,392.959,334.578,399.072,336.052,405.892z"/>
							<path style="fill:#E87578;" d="M344.626,393.035c0.295,4.625,2.242,10.905,2.325,12.751c0.178,3.953-6.952,5.058-9.324,0.569
								c-0.758-1.436-1.642-7.859-0.964-13.03C337.341,388.154,344.626,393.035,344.626,393.035z"/>
						</g>
						<path style="fill:#454658;" d="M332.675,340.658c-0.754,3.473-1.216,7.641-1.333,12.056
							c-0.181,6.814,2.44,23.687,3.604,31.188c0.01,0.063,0.245,1.585,0.394,2.546c0.072,0.468,0.418,0.857,0.882,0.951
							c2.665,0.544,5.541,0.263,8.151-0.648c0.434-0.152,0.725-0.557,0.753-1.016c0.186-3.035,0.473-6.785,0.784-10.836
							c0.675-8.8,1.439-18.771,1.63-26.932c0.163-0.452,0.28-0.918,0.358-1.422c2.529-16.461,1.506-73.199,1.495-73.771
							l-0.003-0.179l-0.144-0.107c-3.882-2.875-10.017-6.139-17.235-5.346c-1.855,0.203-3.958,0.434-5.667,1.867
							c-2.518,2.112,0.283,24.643,3.914,51.656C331.494,329.867,332.564,337.82,332.675,340.658z"/>
					</g>
					<path style="fill:#454658;" d="M326.455,286.354c-0.012-0.153-0.023-0.306-0.034-0.459c-0.147-2.013-0.25-4.03-0.301-6.048
						c-0.058-2.277-0.051-4.557,0.042-6.833c0.048-1.176,0.119-2.351,0.218-3.524c0.025-0.293,0.051-0.587,0.08-0.88
						c0.023-0.243,0.012-0.512,0.093-0.742c0.155-0.437,0.515-0.765,0.679-1.199c0.181-0.48,0.094-1.015-0.003-1.519
						c-0.077-0.401-0.161-0.814-0.11-1.224c0.046-0.375,0.111-0.744,0.187-1.117c0.161-0.796,0.344-1.588,0.552-2.373
						c0.535-2.016,1.235-4.004,2.225-5.844c0.167-0.309,0.511-0.473,0.858-0.417c5.182,0.843,12.385,2.474,19.125,2.424
						c6.93-0.052,13.084-0.728,18.268-1.607c0.276-0.047,0.553,0.044,0.742,0.252c1.387,1.525,6.56,8.921,3.349,31.599
						L326.455,286.354z"/>
					
						<path style="fill:none;stroke:#08051A;stroke-width:0.662;stroke-linecap:round;stroke-linejoin:round;stroke-miterlimit:10;" d="
						M365.571,277.195c0,0-1.236,7.323,6.083,6.223"/>
					
						<path style="fill:none;stroke:#08051A;stroke-width:0.662;stroke-linecap:round;stroke-linejoin:round;stroke-miterlimit:10;" d="
						M332.263,274.866c0,0,1.054,6.14-4.597,5.549"/>
					
						<path style="fill:none;stroke:#08051A;stroke-width:0.662;stroke-linecap:round;stroke-linejoin:round;stroke-miterlimit:10;" d="
						M346.577,264.867c0,0-0.411,19.334-0.005,19.984c0.405,0.649,2.567,0.674,2.567,0.674"/>
					
						<line style="fill:none;stroke:#08051A;stroke-width:0.662;stroke-linecap:round;stroke-linejoin:round;stroke-miterlimit:10;" x1="349.116" y1="283.72" x2="349.309" y2="265.587"/>
					<g>
						<path style="fill:#08051A;" d="M366.248,188.656c-1.976-3.124,0.701-5.945,1.318-12.611
							c0.306-3.309,0.958-10.364-3.204-15.413c-5.066-6.146-14.084-5.463-15.985-5.26c-2.744,0.294-6.612,0.709-8.667,3.545
							c-2.158,2.978-0.216,5.728-2.823,9.411c-1.967,2.779-4.048,2.591-4.329,4.706c-0.354,2.663,2.521,6.144,2.894,6.588
							c0.779,0.926,1.501,1.522,1.644,2.647c0.173,1.358-0.626,2.477-1.109,3.171c-1.251,1.8-4.035,5.805-5.005,8.834
							c-0.085,0.266-1.297,4.168-0.118,6.428c2.061,3.948,12.026,4.033,24.49-0.021c12.977,2.789,17.163,1.39,18.337-0.704
							c1.112-1.983-0.845-5.319-1.023-5.632C370.679,190.852,367.879,191.235,366.248,188.656z"/>
						<path style="fill:#E2AE1A;" d="M365.119,191.407c5.694-1.514,7.564,3.861,9.594,10.052c0.47,0.938,6.771,29.771,8.652,36.248
							c0.889,3.062-3.202,8.131-6.392,8.76c-2.766,0.546-4.613-2.434-6.31-4.788C366.404,235.77,350.515,195.29,365.119,191.407z"/>
						<path style="fill:#E2AE1A;" d="M374.488,273.451c-0.351-3.474-0.853-11.637-1.47-14.847c0,0-0.626-2.579-1.645-9.914
							c-0.898-6.458-1.263-12.933-1.938-19.407c-0.623-5.973,1.922-11.616,1.33-17.714c-0.496-5.11,0.101-9.085,1.998-13.906
							c0.442-4.57-6.33-7.796-16.513-9.408c-10.834-1.715-22.39,2.541-22.832,7.111l-2.268,43.401
							c-0.089,1.699-0.309,3.388-0.655,5.053c-1.787,8.581-2.236,11.209-3.017,14.251c-0.828,3.227-2.198,11.386-2.957,15.037
							c-0.194,0.932,0.249,1.879,1.1,2.305c4.624,2.311,12.848,5.574,23.524,5.668c11.039,0.097,19.542-3.241,24.198-5.536
							C374.129,275.158,374.576,274.324,374.488,273.451z"/>
						<path style="fill:#E2AE1A;" d="M337.672,191.864c5.892,0.05,5.012,9.993,3.381,16.3c-0.111,1.043-9.867,23.562-11.779,30.03
							c-0.904,3.057-6.115,3.1-9.14,1.908c-2.623-1.033-3.932-3.996-3.208-6.72C318.796,226.343,327.732,191.78,337.672,191.864z"/>
						
							<path style="fill:none;stroke:#08051A;stroke-width:0.662;stroke-linecap:round;stroke-linejoin:round;stroke-miterlimit:10;" d="
							M335.199,201.962c-0.154,1.829-0.456,3.602-1.391,5.166c-1.071,1.793-2.792,3.087-3.925,4.826
							c-1.219,1.868-1.574,3.783-1.243,6c0.95,6.364,3.566,12.53,2.57,19.637"/>
						<path style="fill:#E87578;" d="M355.26,188.902l-3.176-0.293c-6.646-1.22-11.246,6.744-9.413,11.408
							C344.504,204.679,362.107,194.033,355.26,188.902z"/>
					</g>
				</g>
				<g>
					<g>
						<g>
							<g>
								<polygon style="fill:#E87578;" points="349.085,189.842 354.912,191.588 359.071,177.707 352.563,178.234 								"/>
								<path style="fill:#08051A;" d="M349.492,188.483l2.311-10.184l6.605-0.329C356.592,181.647,353.127,186.671,349.492,188.483
									z"/>
							</g>
							<path style="fill:#E87578;" d="M358.963,178.399c0,0-0.765,0.813-2.011,1.921c-3.442,3.061-9.747,5.803-14.543,2.431
								c-6.53-4.592-2.161-22.582,1.638-25.162C352.843,151.616,366.743,161.228,358.963,178.399z"/>
							<path style="fill:#08051A;" d="M344.217,175.17c-0.317-0.199-0.691-0.396-1.05-0.288c-0.332,0.1-0.541,0.44-0.613,0.779
								c-0.174,0.821,0.364,1.732,1.17,1.967c0.65,0.19,1.643-0.114,1.903-0.799C345.934,176.019,344.762,175.512,344.217,175.17z"
								/>
							<path style="fill:#08051A;" d="M363.172,175.646c-1.078,0.347-4.117,1.625-5.225,0.67c-0.311-0.268-0.191-0.441-0.185-0.809
								c0.011-0.681-0.024-1.34-0.18-2.006c-0.353-1.509-1.228-2.855-2.4-3.86c-1.852-1.588-4.258-2.301-6.153-3.825
								c-1.408-1.132-2.455-2.678-3.132-4.353c-0.755-1.871-1.053-4.026-0.297-5.896c1.758-4.349,6.969-2.95,10.304-1.545
								c1.216,0.512,7.04,3.154,8.911,9.818C366.52,169.913,363.675,174.812,363.172,175.646z"/>
							
								<path style="fill:none;stroke:#08051A;stroke-width:0.662;stroke-linecap:round;stroke-linejoin:round;stroke-miterlimit:10;" d="
								M345.411,168.871c0,0-0.223,2.503-0.761,2.539c-0.538,0.036-1.5-0.713-1.633-0.489c-0.133,0.224,0.357,1.227,1.167,1.602"/>
							<path style="fill:#E87578;" d="M357.09,176.106c-1.084,1.462-1.063,3.315,0.048,4.139c1.111,0.824,2.891,0.307,3.975-1.155
								c1.084-1.462,1.063-3.315-0.048-4.139C359.955,174.127,358.175,174.644,357.09,176.106z"/>
							
								<path style="fill:none;stroke:#08051A;stroke-width:0.662;stroke-linecap:round;stroke-linejoin:round;stroke-miterlimit:10;" d="
								M360.571,176.506c-1.311-0.464-2.576,1.727-2.091,2.663c0,0,0.308-1.094,0.868-0.662s-0.254,0.846-0.254,0.846"/>
						</g>
					</g>
					<path style="fill:#08051A;" d="M350.793,168.6c-0.258,0.257,0.443,0.883,1.26,1.703c0.816,0.82,1.219,1.743,1.477,1.486
						c0.258-0.257,0.025-1.349-0.791-2.169C351.921,168.801,351.05,168.344,350.793,168.6z"/>
					<path style="fill:#08051A;" d="M343.445,165.865c0.02,0.339-0.857,0.341-1.936,0.406c-1.079,0.065-1.933,0.459-1.953,0.12
						c-0.021-0.339,0.82-0.957,1.899-1.022C342.534,165.305,343.425,165.527,343.445,165.865z"/>
					
						<path style="fill:none;stroke:#08051A;stroke-width:0.662;stroke-linecap:round;stroke-linejoin:round;stroke-miterlimit:10;" d="
						M350.971,172.564c-0.027-0.354-0.237-0.689-0.543-0.868c-0.306-0.179-0.701-0.197-1.023-0.046"/>
					
						<path style="fill:none;stroke:#08051A;stroke-width:0.662;stroke-linecap:round;stroke-linejoin:round;stroke-miterlimit:10;" d="
						M342.558,169.651c-0.154-0.205-0.315-0.415-0.535-0.546c-0.221-0.131-0.52-0.165-0.727-0.012"/>
					<path style="fill:#08051A;" d="M359.135,174.551c-1.372,0.585-1.762,3.603-1.879,4.648c-0.117,1.046-1.354-0.107-0.585-3.159
						c0.769-3.052,0.556-4.446-1.067-6.009c-1.622-1.563,5.894-1.807,5.894-1.807"/>
				</g>
				
					<path style="fill:none;stroke:#08051A;stroke-width:0.662;stroke-linecap:round;stroke-linejoin:round;stroke-miterlimit:10;" d="
					M364.349,198.999c0.154,1.829,0.456,3.602,1.391,5.166c1.071,1.792,2.792,3.087,3.925,4.826c1.219,1.868,1.574,3.783,1.243,6
					c-0.95,6.364-0.246,26.687,0.745,36.112"/>
			</g>
		</g>
		<g>
			<path style="fill:#E87578;" d="M391.009,278.743c1.33,0.28,2.489,0.045,3.044-0.75c0.923-1.323-1.202-2.209-3.478-3.798
				c-1.356-0.947-2.458-1.924-3.323-2.284c-0.442-0.276-0.904-0.403-1.388-0.319c-3.795,0.656-6.094,0.262-4.696,8.533
				c0.438,2.596,1.342,4.595,2.473,6.097c1.041,1.116,1.955,0.463,2.083,0.734c0.151,0.318,0.575,1.498,1.193,1.869
				c0.03,0.017-0.03-0.016,0,0c0.694,0.298,1.624-0.862,1.651-0.571c0.016,0.178,0.181,0.952,0.635,1.158
				c0.54,0.066,0.761,0.137,1.279,0.065c0.9-0.332,0.46-0.906,0.794-1.052c0.373-0.163,1.411-0.238,1.653-0.88
				C393.012,287.327,392.314,282.887,391.009,278.743z"/>
			
				<line style="fill:none;stroke:#08051A;stroke-width:0.662;stroke-linecap:round;stroke-linejoin:round;stroke-miterlimit:10;" x1="391.277" y1="288.426" x2="389.263" y2="282.709"/>
			
				<line style="fill:none;stroke:#08051A;stroke-width:0.662;stroke-linecap:round;stroke-linejoin:round;stroke-miterlimit:10;" x1="389.01" y1="289.348" x2="386.575" y2="283.319"/>
			
				<line style="fill:none;stroke:#08051A;stroke-width:0.662;stroke-linecap:round;stroke-linejoin:round;stroke-miterlimit:10;" x1="385.882" y1="287.317" x2="384.665" y2="284.578"/>
			<g>
				<g>
					<path style="fill:#E87578;" d="M381.151,275.899c-0.408-1.216-7.618-23.243-9.315-33.826c-0.466-2.905,1.449-5.657,4.334-6.232
						l0,0c2.983-0.594,5.878,1.36,6.444,4.349l4.678,33.741L381.151,275.899z"/>
				</g>
			</g>
		</g>
		<g>
			<path style="fill:#E87578;" d="M297.461,200.372c-0.587-1.226-0.633-2.408,0.009-3.135c1.067-1.21,2.431,0.645,4.513,2.481
				c1.24,1.094,2.451,1.933,3.005,2.689c0.373,0.364,0.605,0.783,0.639,1.273c0.26,3.842,1.187,5.983-7.179,6.582
				c-2.626,0.188-4.782-0.217-6.509-0.961c-1.33-0.748-0.912-1.79-1.206-1.851c-0.345-0.071-1.338,0.257-1.845-0.257
				c-0.023-0.025-0.055-0.046-0.078-0.072c-0.453-0.604-0.113-1.697-0.402-1.654c-0.177,0.026-0.575-0.107-0.882-0.499
				c-0.192-0.509-0.317-1.023-0.369-1.544c0.11-0.953,0.771-0.661,0.834-1.02c0.07-0.401-0.103-1.427,0.464-1.814
				C288.648,200.456,293.126,200.084,297.461,200.372z"/>
			
				<line style="fill:none;stroke:#08051A;stroke-width:0.662;stroke-linecap:round;stroke-linejoin:round;stroke-miterlimit:10;" x1="287.991" y1="202.402" x2="293.551" y2="202.462"/>
			
				<line style="fill:none;stroke:#08051A;stroke-width:0.662;stroke-linecap:round;stroke-linejoin:round;stroke-miterlimit:10;" x1="287.526" y1="204.967" x2="293.52" y2="205.396"/>
			
				<line style="fill:none;stroke:#08051A;stroke-width:0.662;stroke-linecap:round;stroke-linejoin:round;stroke-miterlimit:10;" x1="289.376" y1="207.197" x2="292.908" y2="207.549"/>
			<g>
				<g>
					<path style="fill:#E87578;" d="M299.89,206.672c0.582,1.143,11.27,21.708,17.642,30.327c1.749,2.366,5.055,2.925,7.484,1.265
						l0,0c2.512-1.715,3.143-5.151,1.403-7.646l-20.827-26.955L299.89,206.672z"/>
				</g>
			</g>
		</g>
	</g>
</g>
</svg>
